<?xml version="1.0" encoding="UTF-8" standalone="no"?>
<!-- Created with Inkscape (http://www.inkscape.org/) -->

<svg
   width="971.98987"
   height="492.82898"
   viewBox="0 0 971.98987 492.82898"
   version="1.1"
   id="svg1"
   inkscape:version="1.3.2 (091e20e, 2023-11-25, custom)"
   sodipodi:docname="dungeon_platformer_icons.svg"
   xmlns:inkscape="http://www.inkscape.org/namespaces/inkscape"
   xmlns:sodipodi="http://sodipodi.sourceforge.net/DTD/sodipodi-0.dtd"
   xmlns="http://www.w3.org/2000/svg"
   xmlns:svg="http://www.w3.org/2000/svg">
  <sodipodi:namedview
     id="namedview1"
     pagecolor="#505050"
     bordercolor="#eeeeee"
     borderopacity="1"
     inkscape:showpageshadow="0"
     inkscape:pageopacity="0"
     inkscape:pagecheckerboard="0"
     inkscape:deskcolor="#505050"
     inkscape:document-units="px"
     inkscape:zoom="0.52591067"
     inkscape:cx="1048.6572"
     inkscape:cy="552.37518"
     inkscape:window-width="1920"
     inkscape:window-height="1017"
     inkscape:window-x="-8"
     inkscape:window-y="-8"
     inkscape:window-maximized="1"
     inkscape:current-layer="g22" />
  <defs
     id="defs1" />
  <g
     inkscape:label="Vrstva 1"
     inkscape:groupmode="layer"
     id="layer1"
     transform="translate(-417.4429,-521.53088)">
    <g
       id="g22"
       inkscape:label="Double jump">
      <g
         id="path21"
         transform="translate(77.960008,58.945372)"
         inkscape:export-filename="doublejump_icon.svg"
         inkscape:export-xdpi="96"
         inkscape:export-ydpi="96">
        <path
           style="color:#000000;fill:#000000;stroke-linecap:round;stroke-dasharray:110, 110;-inkscape-stroke:none"
           d="m 1012.7793,462.89258 a 27.5,27.5 0 0 0 -14.14453,1.59375 c -4.83759,1.89831 -9.49374,4.03996 -13.97071,6.36133 l -0.008,0.004 -0.006,0.002 c -15.88306,8.24713 -29.6789,18.8254 -41.82422,30.16796 l -0.0117,0.0117 -0.0117,0.01 c -14.59177,13.65826 -27.13446,28.69436 -38.31836,44.07226 a 27.5,27.5 0 0 0 6.06446,38.41407 27.5,27.5 0 0 0 38.41601,-6.06446 c 9.68739,-13.32019 20.05868,-25.62646 31.40039,-36.24609 l 0.0156,-0.0137 c 0.003,-0.002 0.005,-0.005 0.008,-0.008 9.37763,-8.75475 19.28626,-16.17036 29.59186,-21.52344 2.9122,-1.51005 5.8327,-2.84583 8.7441,-3.98828 a 27.5,27.5 0 0 0 15.5547,-35.64453 27.5,27.5 0 0 0 -21.5,-17.14844 z m 101.8066,14.48047 a 27.5,27.5 0 0 0 -24.457,12.57617 27.5,27.5 0 0 0 8.2285,38.00976 c 10.5365,6.78683 20.6148,15.02364 30.3106,24.20899 12.3999,11.77202 23.9637,24.88237 34.9687,38.82422 1.9122,2.42579 3.7948,4.85959 5.6446,7.30078 a 27.5,27.5 0 0 0 38.5273,5.31055 27.5,27.5 0 0 0 5.3086,-38.52735 c -2.0812,-2.74663 -4.1816,-5.46072 -6.2988,-8.14648 l -0.01,-0.008 -0.01,-0.006 c -12.2219,-15.48359 -25.4902,-30.60583 -40.2949,-44.65821 l -0.01,-0.008 -0.01,-0.01 c -11.5727,-10.96355 -24.2375,-21.42707 -38.3535,-30.51953 a 27.5,27.5 0 0 0 -13.5547,-4.34765 z M 869.88672,629.29687 a 27.5,27.5 0 0 0 -22.51563,15.79102 c -1.94863,4.18702 -3.8575,8.3795 -5.73242,12.57227 l -0.002,0.004 -0.002,0.004 c -13.50448,30.23015 -25.4354,60.95316 -36.36915,91.82617 a 27.5,27.5 0 0 0 16.74219,35.10156 27.5,27.5 0 0 0 35.10156,-16.74023 c 10.56176,-29.82265 21.97587,-59.17426 34.73829,-87.74414 l 0.004,-0.01 c 1.771,-3.96027 3.56302,-7.89645 5.38281,-11.80664 a 27.5,27.5 0 0 0 -13.32812,-36.53515 27.5,27.5 0 0 0 -14.01953,-2.4629 z m -332.95703,8.02149 c -11.25513,2.62482 -22.19562,6.51615 -32.58789,11.60351 -0.003,0.002 -0.007,0.002 -0.01,0.004 -14.06316,6.87196 -26.71856,15.75275 -37.91992,25.82422 -12.53357,11.25998 -23.16876,23.83855 -32.42383,36.80859 a 27.5,27.5 0 0 0 6.41211,38.35938 27.5,27.5 0 0 0 38.35938,-6.41211 c 7.43715,-10.42242 15.54705,-19.88304 24.41601,-27.84961 l 0.004,-0.004 0.006,-0.004 c 7.82146,-7.03251 16.35587,-12.93939 25.29882,-17.3086 l 0.0117,-0.006 0.0117,-0.006 c 6.64599,-3.25494 13.69437,-5.76354 20.91406,-7.44726 a 27.5,27.5 0 0 0 20.53516,-33.02734 27.5,27.5 0 0 0 -33.02734,-20.53516 z m 714.03121,9.40039 a 27.5,27.5 0 0 0 -13.8086,3.46094 27.5,27.5 0 0 0 -10.6757,37.39648 c 6.6038,11.88033 12.9964,23.91906 19.2148,36.08594 a 27.5,27.5 0 0 0 37.002,11.97266 27.5,27.5 0 0 0 11.9707,-37.00196 c -6.4767,-12.67207 -13.1661,-25.27777 -20.1153,-37.77929 a 27.5,27.5 0 0 0 -23.5879,-14.13477 z m -604.84762,1.27539 a 27.5,27.5 0 0 0 -20.90234,17.87109 27.5,27.5 0 0 0 16.75976,35.09375 c 16.89624,5.97364 33.56307,13.47963 50.05469,21.95118 14.55054,7.4875 28.86468,15.68726 42.99609,24.40234 a 27.5,27.5 0 0 0 37.8418,-8.9707 27.5,27.5 0 0 0 -8.9707,-37.8418 c -15.13997,-9.33707 -30.68632,-18.25449 -46.71875,-26.50391 l -0.008,-0.004 -0.01,-0.004 c -18.13177,-9.31409 -37.03046,-17.877 -56.85114,-24.88457 a 27.5,27.5 0 0 0 -14.19141,-1.10938 z M 402.41016,797.92578 a 27.5,27.5 0 0 0 -21.67188,16.92774 l -0.47266,1.16796 -0.8789,2.1875 -0.006,0.0156 c -13.47057,33.64727 -25.31686,67.1917 -38.01172,99.68164 a 27.5,27.5 0 0 0 15.60547,35.62305 27.5,27.5 0 0 0 35.62109,-15.60743 c 13.13415,-33.6142 24.93698,-67.01001 37.84571,-99.2539 l 0.83789,-2.08789 0.45117,-1.11719 a 27.5,27.5 0 0 0 -15.19141,-35.80078 27.5,27.5 0 0 0 -14.1289,-1.73633 z"
           id="path15" />
        <g
           id="g3">
          <path
             d="m 1283.684,568.36231 27.7887,223.59528 -164.9212,-153.51895 c 57.4589,13.87338 114.5403,-15.29589 137.1325,-70.07633 z"
             style="color:#000000;fill:#000000;fill-rule:evenodd;-inkscape-stroke:none"
             id="path14" />
        </g>
      </g>
    </g>
  </g>
</svg>
